ply
format ascii 1.0
element vertex 76
property float x
property float y
property float z
element face 0
property list uint8 int32 vertex_index
end_header
0.00000 0.00000 0.00000
0.00000 0.00000 1.00000
0.00000 1.00000 0.00000
0.00000 1.00000 1.00000
1.00000 0.00000 0.00000
1.00000 0.00000 1.00000
1.00000 1.00000 0.00000
0.00000 0.00000 2.00000
0.00000 0.00000 3.00000
0.00000 1.00000 2.00000
0.00000 1.00000 3.00000
1.00000 0.00000 2.00000
1.00000 0.00000 3.00000
1.00000 1.00000 3.00000
2.00000 0.00000 0.00000
2.00000 0.00000 1.00000
2.00000 1.00000 0.00000
3.00000 0.00000 0.00000
3.00000 0.00000 1.00000
3.00000 1.00000 0.00000
2.00000 0.00000 2.00000
2.00000 0.00000 3.00000
2.00000 1.00000 3.00000
3.00000 0.00000 2.00000
3.00000 0.00000 3.00000
3.00000 1.00000 3.00000
1.00000 0.00000 4.00000
1.00000 1.00000 4.00000
1.00000 2.00000 4.00000
2.00000 0.00000 4.00000
2.00000 1.00000 4.00000
2.00000 2.00000 4.00000
4.00000 0.00000 0.00000
4.00000 0.00000 1.00000
4.00000 1.00000 0.00000
5.00000 0.00000 0.00000
5.00000 0.00000 1.00000
5.00000 1.00000 0.00000
4.00000 0.00000 2.00000
4.00000 0.00000 3.00000
4.00000 1.00000 3.00000
5.00000 0.00000 2.00000
5.00000 0.00000 3.00000
5.00000 1.00000 3.00000
6.00000 0.00000 0.00000
6.00000 0.00000 1.00000
6.00000 1.00000 0.00000
7.00000 0.00000 0.00000
7.00000 0.00000 1.00000
7.00000 1.00000 0.00000
6.00000 0.00000 2.00000
6.00000 0.00000 3.00000
6.00000 1.00000 3.00000
7.00000 0.00000 2.00000
7.00000 0.00000 3.00000
7.00000 1.00000 3.00000
7.00000 0.00000 4.00000
7.00000 1.00000 4.00000
7.00000 2.00000 4.00000
8.00000 0.00000 0.00000
8.00000 0.00000 1.00000
8.00000 1.00000 0.00000
9.00000 0.00000 0.00000
9.00000 0.00000 1.00000
9.00000 1.00000 0.00000
9.00000 1.00000 1.00000
8.00000 0.00000 2.00000
8.00000 0.00000 3.00000
8.00000 1.00000 3.00000
9.00000 0.00000 2.00000
9.00000 0.00000 3.00000
9.00000 1.00000 2.00000
9.00000 1.00000 3.00000
8.00000 0.00000 4.00000
8.00000 1.00000 4.00000
8.00000 2.00000 4.00000
